<svg width="40" height="40" viewBox="0 0 40 40" fill="none" xmlns="http://www.w3.org/2000/svg">
<path fill-rule="evenodd" clip-rule="evenodd" d="M19.9844 0.800049L20.9211 1.92424L19.9844 3.10588L19.0477 1.92424L19.9844 0.800049ZM7.47598 10.089C7.82413 9.82643 9.13383 9.09611 8.80226 10.4911C9.11921 10.3944 9.34745 10.1201 9.3825 9.7936C9.3825 9.35452 9.0741 9.03462 8.76866 8.7178C8.46904 8.40701 8.17228 8.09919 8.17228 7.68471C8.17228 6.43743 10.2031 6.43743 10.1368 6.63437C9.78867 7.74216 10.4518 9.09611 12.3666 9.2274C12.3735 9.13727 12.3735 9.04675 12.3666 8.95661C11.6541 9.00769 10.9929 8.58727 10.7435 7.92453C10.4942 7.26178 10.7164 6.51563 11.289 6.09279C10.7905 4.55197 10.1046 5.27149 9.43096 5.97817L9.43095 5.97818C9.18619 6.23495 8.94304 6.49003 8.71108 6.63437C8.52853 6.757 8.20497 6.80348 7.87299 6.85117C7.36077 6.92476 6.82849 7.00123 6.76311 7.36469C6.69578 7.69793 6.89134 7.89615 7.1162 8.12409C7.47274 8.48548 7.90297 8.92158 7.47598 10.089ZM29.7988 6.64258C29.7408 6.44564 31.7634 6.43743 31.7634 7.69292C31.784 8.10903 31.5034 8.41562 31.2161 8.72965C30.9254 9.04729 30.6278 9.37254 30.6278 9.82643C30.6628 10.1529 30.8911 10.4273 31.208 10.5239C30.893 9.12894 32.1861 9.85925 32.5343 10.1218C32.103 8.95786 32.524 8.52118 32.8794 8.15261C33.0978 7.92616 33.2913 7.72542 33.2472 7.39751C33.1812 7.03106 32.6469 6.95635 32.13 6.88406C31.8019 6.83818 31.4808 6.79328 31.2909 6.6754C31.0592 6.53124 30.8158 6.27659 30.5706 6.02013C29.8947 5.31314 29.2057 4.59232 28.713 6.13382C29.2856 6.55666 29.5078 7.30281 29.2584 7.96556C29.0091 8.6283 28.3479 9.04872 27.6354 8.99764C27.6285 9.08778 27.6285 9.1783 27.6354 9.26843C29.517 9.13714 30.1884 7.75036 29.7988 6.64258ZM28.9699 11.4184C28.7341 10.1568 26.8403 10.1639 24.8342 10.1713C23.5259 10.1762 22.1697 10.1812 21.1946 9.83463C21.1449 10.4419 21.9572 11.4101 22.7281 11.7712C21.0704 13.4264 20.0901 15.6303 19.9761 17.9584C19.8651 15.6312 18.8877 13.4272 17.2324 11.7712C18.0033 11.4101 18.8156 10.4419 18.7659 9.83463C17.7807 10.1857 16.4183 10.1814 15.1073 10.1772H15.1073C13.1092 10.1708 11.2309 10.1648 10.9906 11.4184C10.9283 11.8842 11.0599 12.3552 11.3553 12.7231C11.5061 12.3281 11.8749 12.0559 12.3003 12.0256C15.7901 11.4676 18.6747 16.7603 16.0636 18.8528C16.0455 18.8606 16.0337 18.8784 16.0337 18.8979C16.0337 18.9175 16.0455 18.9352 16.0636 18.9431H18.3431C18.5599 18.9066 18.7813 18.9066 18.998 18.9431H23.9135C23.9316 18.9352 23.9434 18.9175 23.9434 18.8979C23.9434 18.8784 23.9316 18.8606 23.9135 18.8528C21.3107 16.7275 24.1953 11.4676 27.6519 11.9928C28.0766 12.0251 28.4444 12.2966 28.5969 12.6903C28.8874 12.3324 29.0217 11.8746 28.9699 11.4184ZM31.896 17.8681C34.2444 18.1711 36.6313 17.8038 38.7761 16.8096C38.779 16.789 38.7928 16.7716 38.8123 16.7639C38.8317 16.7562 38.8538 16.7593 38.8703 16.7721C38.8867 16.7849 38.8951 16.8055 38.8921 16.826C38.9877 17.5293 38.787 18.2405 38.3371 18.793C37.8872 19.3454 37.2277 19.6905 36.5131 19.7472C34.8884 20.0344 31.465 19.2139 31.465 19.2139C31.3904 19.3698 31.3158 19.5175 31.2412 19.6652C33.3347 20.8495 36.2158 20.7976 37.0161 20.7833C37.0808 20.7821 37.132 20.7812 37.168 20.7812C37.1833 20.7812 37.1981 20.7872 37.209 20.798C37.2199 20.8088 37.226 20.8234 37.226 20.8386C37.1928 22.3895 35.6593 22.8162 34.3082 22.6357C32.8861 22.3477 31.5485 21.7446 30.3957 20.8714C30.283 20.9949 30.164 21.1127 30.0392 21.2243C31.1334 22.9557 33.6948 23.7106 34.5237 23.7763C34.5426 23.7736 34.5614 23.782 34.572 23.7977C34.5826 23.8135 34.5832 23.8339 34.5734 23.8501C34.0263 24.7856 32.7912 25.0974 31.4401 24.4574C30.4118 23.8612 29.5555 23.0136 28.9533 21.9956C28.7946 22.0713 28.6313 22.1371 28.4643 22.1926C28.8953 24.3015 31.0091 25.5816 31.3821 25.7949C31.396 25.804 31.4043 25.8194 31.4043 25.8359C31.4043 25.8524 31.396 25.8678 31.3821 25.877C30.9532 26.2446 30.3903 26.4212 29.8258 26.3653C29.2613 26.3094 28.7449 26.026 28.398 25.5816C28.0121 25.0775 27.7304 24.5031 27.569 23.8912C27.6716 23.4572 27.7354 23.0151 27.7597 22.57V22.1351C28.0626 21.6699 28.1387 21.0946 27.9669 20.5678C27.9108 20.4039 27.8357 20.247 27.7431 20.1001C28.4351 19.7009 28.8658 18.9726 28.8787 18.1799C28.8695 17.5509 28.5926 16.955 28.1161 16.5388C28.0641 16.5036 28.0329 16.4453 28.0329 16.3829C28.0329 16.3205 28.0641 16.2621 28.1161 16.227L28.2653 16.1367C32.3353 13.5601 36.0821 7.64369 36.4799 6.99543C36.5055 6.97146 36.5456 6.97146 36.5711 6.99543C37.8311 8.10321 37.9554 10.2777 36.6292 11.9189C35.3039 13.2941 33.7507 14.4347 32.0369 15.2915C32.095 15.4884 32.095 15.6854 32.095 15.8823C34.6829 15.2872 37.0273 13.928 38.8175 11.9846C38.828 11.9673 38.8469 11.9567 38.8672 11.9567C38.8876 11.9567 38.9065 11.9673 38.917 11.9846C39.5975 13.464 39.0123 15.2126 37.5741 15.9972C35.81 16.7724 33.9215 17.2336 31.9955 17.3594C31.9849 17.4116 31.971 17.4648 31.9569 17.5185C31.9268 17.6333 31.896 17.7507 31.896 17.8681ZM12.1677 22.012V22.2746C12.1054 21.9821 12.0611 21.6862 12.0351 21.3884C12.0108 20.9755 12.1373 20.5678 12.3915 20.2396C11.6207 19.8573 11.1287 19.0825 11.1149 18.2292C11.1231 17.5999 11.4002 17.0036 11.8776 16.588C11.9296 16.5528 11.9608 16.4945 11.9608 16.4321C11.9608 16.3697 11.9296 16.3113 11.8776 16.2762L11.7284 16.1859C7.63348 13.6093 3.91162 7.67651 3.51374 7.02825C3.48817 7.00428 3.44813 7.00428 3.42256 7.02825C2.1626 8.11962 2.04655 10.2531 3.36453 11.9517C4.69035 13.3263 6.24338 14.4669 7.95676 15.3243C7.95676 15.4337 7.94397 15.5431 7.93117 15.6525C7.92094 15.7401 7.91071 15.8276 7.90702 15.9151C5.31181 15.3083 2.96435 13.9346 1.17618 11.9763C1.16518 11.9625 1.14837 11.9544 1.13059 11.9544C1.1128 11.9544 1.096 11.9625 1.085 11.9763C0.405566 13.4473 0.978584 15.1883 2.40298 15.9808C4.16687 16.7568 6.0555 17.218 7.98163 17.3429C7.98163 17.4811 8.01891 17.6192 8.05505 17.7531C8.064 17.7862 8.07287 17.8191 8.0811 17.8517C5.73271 18.1547 3.34576 17.7874 1.20105 16.7932C1.18474 16.7851 1.16556 16.7851 1.14927 16.7932C1.13298 16.8013 1.12146 16.8164 1.11816 16.8342C1.02256 17.5375 1.22324 18.2487 1.67315 18.8012C2.12306 19.3537 2.78261 19.6987 3.49716 19.7554C5.155 20.018 8.54529 19.2221 8.54529 19.2221C8.61161 19.378 8.68621 19.5257 8.7691 19.6734C6.48957 20.9699 3.27335 20.8304 2.82573 20.8058C2.81034 20.8058 2.79559 20.8118 2.7847 20.8226C2.77382 20.8334 2.76771 20.848 2.76771 20.8632C2.76771 22.4141 4.33437 22.8408 5.68551 22.6603C7.10766 22.3726 8.44538 21.7694 9.59802 20.8961C9.71407 21.0191 9.83841 21.1422 9.96275 21.2489C8.86857 23.0131 6.31549 23.7106 5.47828 23.8009C5.46081 23.8015 5.44491 23.8111 5.43642 23.8262C5.42792 23.8413 5.42808 23.8598 5.43684 23.8748C5.98392 24.8102 7.21902 25.122 8.57016 24.482C9.59913 23.8867 10.4556 23.0389 11.0569 22.0202C11.2158 22.0955 11.3791 22.1613 11.546 22.2172C11.1149 24.3261 8.99291 25.6062 8.62818 25.8195C8.61429 25.8287 8.60594 25.8441 8.60594 25.8606C8.60594 25.8771 8.61429 25.8925 8.62818 25.9016C9.05711 26.2692 9.61998 26.4458 10.1845 26.3899C10.749 26.334 11.2654 26.0506 11.6123 25.6062C12.1412 24.8941 12.4984 24.0717 12.6567 23.2019C12.3828 22.8594 12.2131 22.4466 12.1677 22.012ZM15.6243 9.23561H13.1375C12.9459 8.96091 12.7795 8.66982 12.6402 8.3658C12.2423 7.33186 12.7396 6.84772 13.4691 6.84772L14.4141 7.6683L15.359 6.84772C16.0802 6.84772 16.5775 7.33186 16.188 8.3658C16.1086 8.5403 16.0143 8.70776 15.9061 8.86635C17.0083 8.75123 17.9127 7.95166 18.1525 6.88055C17.8482 6.42106 17.5714 5.94431 17.3236 5.45274C16.735 3.97569 17.4894 3.36846 18.5835 3.36846L20.001 5.00962L21.4184 3.36846C22.5126 3.36846 23.2587 3.96749 22.6701 5.45274C22.4228 5.94461 22.146 6.4214 21.8412 6.88055C22.0868 7.96761 23.0162 8.77142 24.1373 8.86635C24.0271 8.70899 23.9327 8.54134 23.8555 8.3658C23.4576 7.33186 23.9549 6.84772 24.6844 6.84772L25.6294 7.6683L26.5743 6.84772C27.2955 6.84772 27.7929 7.33186 27.4033 8.3658C27.2512 8.67157 27.0708 8.96275 26.8645 9.23561H24.3777C22.8397 9.35776 21.4377 8.36195 21.062 6.88055H18.94C18.5642 8.36195 17.1623 9.35776 15.6243 9.23561Z" fill="#DCB33A"/>
<path d="M12.5 34.5026V18.8999H27.5V34.5026C27.5 35.434 27.2946 36.0238 26.9741 36.3797C26.663 36.7251 26.1648 36.9364 25.3746 36.9364H22.7252C21.9629 36.9364 21.274 37.0834 20.7132 37.4382C20.4412 37.6103 20.2096 37.8249 20.019 38.0793C19.8219 37.8202 19.5814 37.6038 19.3011 37.4316C18.7303 37.081 18.0321 36.9364 17.2748 36.9364H14.6175C13.8239 36.9364 13.3285 36.7235 13.0204 36.3782C12.7021 36.0216 12.5 35.4314 12.5 34.5026Z" fill="#52AC62" stroke="#DCB33A"/>
<path fill-rule="evenodd" clip-rule="evenodd" d="M24.2645 23.9765L24.1671 24.1293C23.6962 24.7967 22.9248 25.0701 22.4539 24.7485C21.9703 24.2404 21.9703 23.4471 22.4539 22.9391L22.5594 22.8024L20.4402 21.3308C19.7176 22.3521 20.2778 23.9684 21.6581 25.1103L21.5932 25.1907C21.1076 25.0832 20.6051 25.281 20.3265 25.6893C20.1425 25.943 20.0614 26.2558 20.0992 26.5659C20.1112 26.6511 20.133 26.7348 20.1641 26.8151C19.8031 26.7653 19.4355 26.833 19.1167 27.0081L18.5971 26.3166C18.6258 25.9836 18.5305 25.6518 18.3291 25.3837L17.0706 23.2608C17.3767 23.0368 17.4848 22.6323 17.3304 22.2877C17.2544 22.1038 17.0731 21.9764 16.8983 21.8535C16.7368 21.74 16.5808 21.6303 16.5184 21.4836C16.4765 21.246 16.4 21.0158 16.2911 20.8C16.2911 20.8427 16.2293 20.9142 16.1491 21.0071C16.0175 21.1595 15.8361 21.3694 15.7958 21.6042C15.6902 22.1912 15.406 21.7248 15.4466 21.5077C15.4872 21.2906 15.3979 21.186 15.3573 21.4193C15.3573 21.4669 15.3089 21.554 15.2626 21.6372C15.2308 21.6945 15.2001 21.7498 15.1868 21.7892C15.1378 21.9128 15.0667 22.1745 15.0113 22.3788L15.0113 22.3788C14.9657 22.5467 14.9307 22.6758 14.927 22.6577C14.7808 22.1269 14.4723 22.8507 14.4236 23.1401C14.3638 23.3962 14.4189 23.6653 14.5746 23.878C14.7302 24.0908 14.9713 24.2264 15.2355 24.2499C15.2838 24.2594 15.3334 24.2594 15.3817 24.2499L17.0706 26.204C17.2588 26.4922 17.548 26.7012 17.8825 26.791L18.4347 27.4746L18.3535 27.5711C17.9789 28.0868 17.9108 28.7613 18.1748 29.3402C18.0376 29.3188 17.8979 29.3188 17.7607 29.3402C17.404 29.424 17.0915 29.6361 16.8838 29.9353C16.5117 30.4289 16.5117 31.1062 16.8838 31.5999L14.7565 34.5351C14.6847 34.6021 14.6608 34.7054 14.696 34.7966C14.7312 34.8879 14.8185 34.9492 14.9171 34.9518C15.0157 34.9543 15.1062 34.8978 15.1462 34.8085L17.371 31.9457C17.5196 32.0107 17.6796 32.0462 17.8419 32.0502C18.3139 32.0429 18.753 31.809 19.0193 31.423C19.2308 31.1263 19.3235 30.7623 19.2791 30.4017C19.2688 30.3143 19.2497 30.2281 19.2223 30.1444C19.3286 30.1713 19.4374 30.1874 19.547 30.1926C19.8628 30.1884 20.1715 30.0995 20.4402 29.9353L24.6056 35.0738C24.6501 35.1552 24.7377 35.2041 24.831 35.1998C24.9243 35.1955 25.0069 35.1387 25.0436 35.0537C25.0804 34.9686 25.0647 34.8702 25.0034 34.8004L20.9436 29.4528V29.4126C21.357 28.8511 21.3983 28.1014 21.0492 27.4987C21.4782 27.5358 21.8961 27.3502 22.1534 27.0081C22.3374 26.7545 22.4186 26.4417 22.3808 26.1316C22.3619 25.9961 22.3178 25.8653 22.2509 25.7456L22.3402 25.633C23.8992 26.5417 25.6368 26.5096 26.4 25.4883L24.2645 23.9765ZM23.4264 23.6027C23.6828 23.7725 23.7921 24.0433 23.6707 24.2074C23.5493 24.3716 23.243 24.3669 22.9867 24.197C22.7303 24.0271 22.6209 23.7564 22.7423 23.5922C22.8638 23.4281 23.17 23.4328 23.4264 23.6027Z" fill="#F3C644"/>
</svg>
